<svg width="117" height="48" viewBox="0 0 117 48" fill="none" xmlns="http://www.w3.org/2000/svg">
<path d="M31.5211 11.0262C33.4847 10.971 35.6215 10.9654 37.5891 11.0116C41.171 11.0958 47.8526 10.0385 45.8123 15.9677L51.6021 15.9635C51.6102 17.8604 51.7631 20.1742 51.8529 22.0989C52.1717 21.516 52.5276 20.6772 52.8173 20.0479C53.4386 18.682 54.07 17.3209 54.7116 15.9646L60.278 15.9609C57.3249 21.1208 54.4364 26.3955 51.4463 31.5221C49.4362 31.5131 47.426 31.5162 45.416 31.5314L46.9472 28.9925L47.8292 27.5402L46.4141 19.8111C46.3093 19.2408 45.8785 16.6853 45.7103 16.2719C44.783 18.0495 43.8184 18.4289 41.9931 19.0163C45.0553 19.3828 44.239 21.6068 44.0926 23.9253C44.0202 25.0702 43.9446 26.0764 44.0302 27.2276L37.6008 27.2242C37.4536 25.7755 37.7454 24.1034 37.7695 22.6409C37.7739 22.3717 37.6867 21.8635 37.485 21.7011C37.1042 21.3942 36.1555 21.4694 35.6926 21.475C35.3851 23.1793 34.8589 25.5389 34.441 27.2272L28.0352 27.232C28.2198 26.1353 28.5608 24.7584 28.8041 23.6367L30.5673 15.5116C30.8757 14.0919 31.2827 12.4358 31.5211 11.0262ZM36.5039 17.7607C37.3448 17.7673 37.9203 17.8053 38.6799 17.3932C39.4731 16.8128 40.2099 15.3237 38.8479 14.8449C38.4236 14.6957 37.628 14.7269 37.1592 14.7207C36.9544 15.7369 36.736 16.7504 36.5039 17.7607Z" fill="white"/>
<path d="M11.146 17.582C11.9013 17.7061 12.9091 17.9539 13.6793 18.1202C13.1869 18.5551 12.7459 19.045 12.3647 19.5805C12.148 19.8887 11.8408 20.3985 11.7174 20.7455C9.34641 27.4136 20.0376 31.0873 24.4332 32.2042C31.1375 33.9078 37.6218 34.311 44.4618 33.9998C46.358 33.9136 48.5498 33.7507 50.352 33.428L48.6606 36.4186L48.0093 36.5637C42.0257 37.8394 35.8809 38.1767 29.7942 37.5636C22.9819 36.8845 13.5925 34.667 8.96639 29.2445C7.74553 27.8135 6.88835 25.7074 7.12266 23.8169C7.46435 21.0599 9.11108 19.2436 11.146 17.582Z" fill="white"/>
<path d="M69.1271 11.0247L74.7195 11.0117C74.3116 12.6129 73.9453 14.5247 73.5916 16.1554L71.1842 27.2273L65.9398 27.229C66.0121 26.8012 66.0537 26.451 66.097 26.0222C65.406 26.6873 64.7344 27.0409 63.8411 27.3322C60.6402 28.3199 58.2966 26.4689 58.5387 23.1145C58.8115 19.3381 60.7701 15.3793 65.1633 15.6411C66.3551 15.7122 67.0854 16.0525 67.8681 16.9399C68.2464 14.9771 68.7648 12.9853 69.1271 11.0247ZM65.418 24.3145C66.2372 23.9585 66.5687 22.9798 66.7294 22.1578C66.9521 21.0204 67.863 18.6976 65.8686 18.8418C64.4837 19.2854 64.1772 21.9329 64.0747 23.1891C64.0018 24.0824 64.5931 24.4534 65.418 24.3145Z" fill="white"/>
<path d="M80.2089 15.6683C81.2286 15.5445 82.5263 15.6352 83.5221 15.8838C86.9287 16.7341 86.8946 19.7658 86.154 22.5854C83.5609 22.6344 80.847 22.596 78.2459 22.5891C78.0619 23.6862 77.842 25.0883 79.6541 24.7111C80.2659 24.5838 80.6556 24.1133 80.9575 23.5859L85.8424 23.5762C85.6567 23.9873 85.4835 24.3248 85.2733 24.7214C84.1117 26.5065 82.1612 27.2151 80.1269 27.4586C78.2567 27.6778 75.904 27.6793 74.3442 26.4821C71.9738 24.6625 73.0163 20.3535 74.6307 18.347C76.0185 16.6229 78.0818 15.9025 80.2089 15.6683ZM78.7614 20.2024C79.2667 20.1954 79.7914 20.181 80.295 20.185L81.6872 20.1972C81.8883 18.9908 81.6627 18.3867 80.2972 18.4489C79.3015 18.7222 79.0377 19.2571 78.7614 20.2024Z" fill="white"/>
<path d="M97.0567 15.5428C97.3934 15.5151 97.9061 15.57 98.2558 15.5967C97.8947 17.0857 97.5728 18.7329 97.2492 20.2438C97.1359 20.2091 97.0214 20.178 96.9057 20.1508C95.5476 19.8401 94.1668 20.335 93.3333 21.4251C92.2464 22.8467 91.9656 25.4531 91.5645 27.228L85.9043 27.2303L86.1532 26.1053C86.3503 25.0246 86.6614 23.7507 86.8995 22.6536L88.3869 15.7975C90.1119 15.7356 91.9496 15.7966 93.6996 15.7629C93.5208 16.5869 93.3276 17.4262 93.1881 18.2565C94.0853 16.8391 95.3351 15.7164 97.0567 15.5428Z" fill="white"/>
<path d="M28.1507 11.5475C28.252 11.5202 28.2648 11.5194 28.3678 11.5385C28.4314 11.705 28.3181 12.0007 28.2663 12.1875C27.6339 12.2416 26.4179 12.532 25.7538 12.6854C22.0067 13.5512 18.9255 14.6505 15.5939 16.6012L26.7734 19.101L26.5979 19.8501L15.4808 17.3627L6.40821 15.3364C4.77666 14.9719 2.85277 14.5915 1.25586 14.1539C5.03354 14.2155 8.81181 14.2304 12.5898 14.1985L15.4368 14.2064C15.7298 14.2087 16.9541 14.2323 17.1735 14.1793C18.2386 13.9219 19.3291 13.4519 20.413 13.1376C22.9456 12.4003 25.5332 11.8686 28.1507 11.5475Z" fill="white"/>
<path d="M94.5363 29.3537C95.2649 29.341 95.9929 29.3406 96.7209 29.3524L96.3279 31.2755C96.8685 31.2726 97.4171 31.2815 97.9583 31.2858C98.1029 30.6443 98.2363 30.0003 98.3587 29.3541C99.0919 29.3402 99.8256 29.3403 100.559 29.3545C100.419 29.9959 100.285 30.6384 100.157 31.2821C100.42 31.2593 100.755 31.2588 101.024 31.2512C100.898 31.7513 100.785 32.3382 100.674 32.8482C100.355 32.8389 100.15 32.8339 99.8359 32.7806C99.7083 33.3632 99.0361 35.9998 99.2474 36.3315C99.4326 36.4612 99.6758 36.4364 99.9071 36.4398C99.8199 36.9298 99.7083 37.413 99.6006 37.8987C98.9016 37.9824 97.5031 38.1891 96.9978 37.588C96.7454 37.2881 96.8109 36.8953 96.8502 36.5322L97.6284 32.8185C97.1875 32.8209 96.3991 32.8448 95.994 32.7805C95.8078 33.8196 95.499 34.9028 95.3401 35.9511C95.3059 36.1749 95.3327 36.2083 95.4472 36.3512C95.6226 36.4596 95.8795 36.4359 96.0937 36.4376C95.9821 36.9106 95.8835 37.4203 95.7827 37.8984C95.1635 37.9924 94.3904 38.0485 93.7775 37.9299C93.5433 37.8846 93.2836 37.8052 93.1485 37.5932C92.7184 36.916 93.6157 33.7057 93.8082 32.784C93.6185 32.8221 93.2864 32.8242 93.0825 32.8319C93.1867 32.305 93.3035 31.7731 93.4146 31.2469L94.1386 31.289C94.2423 30.6821 94.4104 29.9659 94.5363 29.3537Z" fill="white"/>
<path d="M82.1277 29.1801C82.8375 29.1603 83.6134 29.1755 84.3283 29.1754C84.1056 30.0436 83.9216 31.0408 83.7496 31.924C84.4565 31.1188 85.6118 30.7042 86.4857 31.6317C86.8879 32.0588 86.8565 33.1013 86.7608 33.6486C86.521 35.0187 86.1855 36.8659 85.0233 37.7529C84.0179 38.297 83.0187 38.2791 82.5874 37.0574L82.3772 37.9572C81.7654 37.8784 80.9018 37.909 80.2871 37.9306C80.8078 35.096 81.5256 32.0192 82.1277 29.1801ZM83.6316 36.426C84.2076 35.9406 84.8291 33.546 84.4645 32.8997C84.2754 32.7539 84.2269 32.7521 83.9541 32.7625C83.7313 32.9392 83.5986 33.0934 83.5029 33.3679C83.2927 33.9699 82.7646 35.7672 83.0665 36.2971C83.2733 36.4522 83.3519 36.4481 83.6316 36.426Z" fill="white"/>
<path d="M57.1928 29.1797C58.8169 29.1399 60.6974 29.157 62.3238 29.1849L61.9358 31.047C60.9794 31.0592 60.0052 31.0501 59.0471 31.0491C58.9491 31.5462 58.8483 32.0426 58.744 32.5384C59.6384 32.4818 60.5578 32.5478 61.455 32.4998C61.3092 33.0961 61.1924 33.7078 61.0722 34.3106C60.1756 34.3209 59.2601 34.3117 58.3618 34.3106L58.0376 35.8374L58.0217 35.955C58.1675 36.0868 60.5293 36.0296 60.9891 36.0636C60.8392 36.6592 60.7065 37.3478 60.5743 37.9543C60.0229 37.8803 58.9622 37.9021 58.3754 37.903C57.403 37.9045 56.293 37.8816 55.332 37.9523C55.9839 35.0639 56.5707 32.0834 57.1928 29.1797Z" fill="white"/>
<path d="M90.2896 31.1353C93.1938 30.8351 92.8292 33.019 92.4259 34.983C91.6711 34.9892 89.863 35.0371 89.1868 34.9563C89.0586 35.4752 88.7134 36.5607 89.4072 36.7935C89.9501 36.7106 90.1598 36.0215 90.28 35.5704L92.2527 35.5683L92.0112 36.2998C91.5651 37.3532 90.8798 37.8772 89.7405 38.0299C88.5846 38.2156 86.9753 37.9918 86.8796 36.5162C86.7907 35.1511 87.2733 33.2145 88.101 32.1198C88.6148 31.4407 89.5012 31.2161 90.2896 31.1353ZM89.4391 33.7785L90.0498 33.7768C90.2162 33.7808 90.4845 33.8146 90.6064 33.7227C90.8667 33.3468 90.9055 32.8352 90.5278 32.5298C90.3563 32.4546 90.2327 32.4767 90.0475 32.4895C89.5844 32.8468 89.5383 33.2187 89.4391 33.7785Z" fill="white"/>
<path d="M103.819 31.1343C106.682 30.8023 106.336 33.0624 105.932 34.9813C105.238 34.9869 103.309 35.036 102.694 34.9561C102.566 35.4918 102.284 36.3364 102.768 36.7558C103.379 36.9337 103.668 36.0032 103.79 35.5694C104.432 35.5572 105.102 35.5699 105.747 35.5731C105.681 35.8216 105.59 36.0819 105.509 36.3275C105.075 37.3374 104.4 37.8775 103.326 38.0173C100.694 38.363 99.9679 37.1766 100.545 34.7301C101.03 32.6751 101.519 31.3618 103.819 31.1343ZM102.949 33.7808L103.624 33.7747C103.817 33.7756 103.969 33.8077 104.122 33.7238C104.354 33.3536 104.405 32.8223 104.034 32.5266C103.856 32.4543 103.74 32.4753 103.551 32.4887C103.086 32.8823 103.048 33.1852 102.949 33.7808Z" fill="white"/>
<path d="M70.6775 31.1353C73.5936 30.9173 73.2261 32.9374 72.8262 34.9798C71.7798 34.998 70.6131 35.0052 69.5729 34.9743C69.4498 35.4453 69.1052 36.5457 69.7443 36.7781C70.3163 36.792 70.5498 36.0023 70.6718 35.5705L72.6445 35.5676L72.4696 36.1309C72.0065 37.2272 71.4146 37.8554 70.2023 38.0183C68.9969 38.1801 67.3631 38.0717 67.276 36.5132C67.2002 35.153 67.6411 33.2416 68.4711 32.1431C68.9969 31.4465 69.8697 31.2188 70.6775 31.1353ZM69.8247 33.778L70.4536 33.7771C70.6119 33.7797 70.8854 33.8105 71.001 33.7242C71.2277 33.3424 71.316 32.8188 70.9065 32.5206C70.7253 32.4594 70.6455 32.4737 70.4524 32.4851C69.9682 32.8297 69.9318 33.215 69.8247 33.778Z" fill="white"/>
<path d="M62.2341 31.2422C63.0601 31.2789 63.6401 31.2968 64.4746 31.275C64.3624 32.6613 64.1585 34.5374 64.1425 35.8918C64.6985 34.3916 65.2146 32.7967 65.7416 31.2787C66.4588 31.3076 67.2694 31.2855 67.9895 31.2649L67.4141 32.5558C66.5716 34.335 65.8014 36.1722 64.944 37.9482C64.2553 37.8717 63.116 37.9078 62.3993 37.9224C62.327 36.4105 62.3367 34.8744 62.2637 33.36C62.2307 32.6756 62.2034 31.9244 62.2341 31.2422Z" fill="white"/>
<path d="M77.6267 31.1275C77.8141 31.122 77.9354 31.1253 78.1223 31.1404C78.0283 31.7804 77.8386 32.485 77.7247 33.1539C77.2216 33.1588 76.6805 33.0947 76.2356 33.3779C75.5839 33.7927 75.1019 37.0531 74.9179 37.9408C74.2947 37.8984 73.2904 37.9752 72.7953 37.9173L72.7617 37.8318C73.0955 35.8532 73.7142 33.2899 74.1506 31.2776C74.8632 31.3025 75.548 31.289 76.2601 31.2769L76.0897 32.1651C76.6155 31.5759 76.8599 31.3108 77.6267 31.1275Z" fill="white"/>
<path d="M110.788 31.1252C110.937 31.1253 111.115 31.1032 111.223 31.1985C111.197 31.5961 110.926 32.7131 110.829 33.1544C110.408 33.1522 109.847 33.0931 109.472 33.3034C108.564 33.8129 108.344 36.8729 108.028 37.9211C107.594 37.9058 106.116 38.0027 105.896 37.8459L105.918 37.6692C106.227 35.8238 106.861 33.1119 107.273 31.2641C108.01 31.299 108.643 31.2897 109.38 31.2666C109.319 31.549 109.268 31.8771 109.215 32.1649C109.743 31.5612 110.008 31.2863 110.788 31.1252Z" fill="white"/>
<path d="M100.229 15.309C101.018 15.2486 101.71 15.8301 101.789 16.6189C101.868 17.4077 101.304 18.1152 100.519 18.2125C99.9947 18.2774 99.4769 18.0526 99.1653 17.6251C98.8536 17.1976 98.7972 16.6344 99.0183 16.1535C99.2393 15.6726 99.703 15.3494 100.229 15.309ZM100.629 17.9581C101.287 17.7943 101.689 17.128 101.528 16.4679C101.367 15.8079 100.704 15.4027 100.045 15.5618C99.3823 15.7217 98.9756 16.3906 99.1379 17.054C99.2997 17.7174 99.9679 18.1227 100.629 17.9581Z" fill="white"/>
<path d="M99.7974 15.9418C100.212 15.9421 100.79 15.8929 101.098 16.2311C101.227 16.593 100.954 16.7413 100.663 16.8822C100.772 17.0522 101.047 17.4232 101.02 17.595L100.888 17.6674C100.605 17.3452 100.509 16.8657 100.067 16.8478C99.9672 16.9992 100.095 17.2771 100.012 17.5702L99.8869 17.6139C99.7302 17.427 99.7929 16.2559 99.7974 15.9418ZM100.799 16.6037C100.831 16.3608 100.862 16.4039 100.77 16.2138C100.574 16.0905 100.29 16.151 100.049 16.1743C100.042 16.4072 100.003 16.4448 100.115 16.6233C100.288 16.7103 100.594 16.6339 100.799 16.6037Z" fill="white"/>
<path d="M109.829 35.484C110.449 35.4421 111.135 35.4574 111.754 35.4963C111.68 35.8571 111.338 37.8128 111.149 37.9218C110.465 37.9106 109.886 37.9068 109.205 37.9439C109.347 37.2251 109.493 36.5021 109.651 35.7866C109.692 35.5985 109.697 35.5651 109.829 35.484Z" fill="white"/>
<path d="M112.148 29.8271C112.189 29.8201 112.23 29.8143 112.271 29.8094C112.519 29.7798 113.235 29.7386 113.43 29.8929C113.304 30.0245 113.128 30.0405 112.938 30.0664L112.955 30.7286C112.948 30.9033 112.947 31.1236 112.816 31.2485C112.665 31.0971 112.667 30.2986 112.656 30.0518C112.496 30.0393 112.409 30.0271 112.252 29.9948L112.148 29.8271Z" fill="white"/>
<path d="M114.006 30.3117C113.978 30.5404 113.957 31.0944 113.842 31.2276L113.731 31.2361C113.573 31.0852 113.564 29.7993 113.87 29.7109C114.121 29.8471 114.212 30.1699 114.3 30.4306C114.232 30.358 114.153 30.2611 114.087 30.1836L114.006 30.3117Z" fill="white"/>
<path d="M114.764 30.0798C114.887 29.8203 114.894 29.7755 115.205 29.8081C115.401 30.0391 115.287 31.0115 115.153 31.2737L115.045 31.2223C115.024 31.0391 114.986 30.3647 114.94 30.26L115.014 30.2277L115.004 30.1544L114.764 30.0798Z" fill="white"/>
<path d="M114.765 30.0781L115.006 30.1527L115.016 30.226L114.942 30.2583C114.842 30.5215 114.712 30.9363 114.528 31.1275L114.408 31.1475C114.209 30.9921 114.095 30.565 114.008 30.3119L114.089 30.1838C114.155 30.2613 114.233 30.3582 114.302 30.4308C114.34 30.5108 114.392 30.6025 114.434 30.6824L114.521 30.6707C114.621 30.4962 114.695 30.2698 114.765 30.0781Z" fill="white"/>
</svg>
